 <svg width="88" height="31" viewBox="0 0 88 31" fill="none" xmlns="http://www.w3.org/2000/svg">
                    <path d="M0.121484 0C2.02408 0 3.83095 0 5.81731 0C5.81731 3.23487 5.81731 6.31223 5.81731 9.37748C6.11646 9.40171 6.27202 9.46229 6.34382 9.40171C13.0089 4.36162 20.8466 7.42687 22.2586 15.7261C22.5817 17.5919 22.5698 19.6031 22.2826 21.4689C21.3492 27.4055 17.0295 30.8342 10.9627 30.6888C4.93183 30.5434 0.600125 27.0784 0.229178 21.1054C-0.213565 14.1753 0.121484 7.20879 0.121484 0ZM5.74552 19.2396C5.76945 19.6152 5.75748 20.3058 5.87714 20.9721C6.37972 24.001 8.01906 25.5155 10.7712 25.5276C13.8944 25.5518 15.6055 24.2191 16.0363 21.0206C16.2637 19.3365 16.2637 17.5192 15.9286 15.8593C15.1269 12.0429 11.0584 10.6981 7.98316 13.0727C6.04467 14.5751 5.78142 16.6953 5.74552 19.2396Z"
                          fill="white"/>
                    <path d="M48.5239 6.82107C55.3924 6.80895 59.8558 11.4371 59.9156 18.658C59.9754 25.9153 55.4403 30.713 48.5359 30.6888C41.6435 30.6767 37.2998 26.0728 37.2998 18.7671C37.2998 11.4613 41.6554 6.83318 48.5239 6.82107ZM52.9155 14.8416C51.7189 12.0671 47.8179 10.9404 45.4846 13.0243C44.1085 14.2479 43.5939 16.2712 43.5221 18.0522C43.3666 21.5779 44.5034 25.5881 48.6675 25.5154C50.6659 25.4791 52.1377 24.631 52.8556 22.7894C53.3462 21.5536 54.0642 17.4949 52.9155 14.8416Z"
                          fill="white"/>
                    <path d="M61.7466 7.70556C63.6133 7.70556 65.3603 7.70556 67.251 7.70556C67.3706 8.43249 67.4903 9.12308 67.6817 10.1771C69.5125 7.66921 71.9057 7.02708 74.5742 7.05131C78.5708 7.07554 81.4307 9.38963 81.6102 13.3999C81.8495 18.7913 81.67 24.207 81.67 29.7802C79.6837 29.7802 77.7691 29.7802 75.6511 29.7802C75.6511 26.9936 75.6511 24.3282 75.6511 21.6627C75.6511 19.6152 75.7109 17.5555 75.5913 15.508C75.4597 13.3757 74.5263 12.3458 72.8152 12.1278C70.6613 11.837 68.9382 12.6245 68.292 14.4782C67.8971 15.617 67.7535 16.9013 67.7296 18.125C67.6578 21.9656 67.7057 25.8063 67.7057 29.8044C65.6355 29.8044 63.7688 29.8044 61.7586 29.8044C61.7466 22.426 61.7466 15.1324 61.7466 7.70556Z"
                          fill="white"/>
                    <path d="M30.1561 29.8165C28.0262 29.8165 26.1595 29.8165 24.1731 29.8165C24.1731 22.3897 24.1731 15.1082 24.1731 7.6692C26.0518 7.6692 27.7868 7.6692 29.7134 7.6692C29.7852 8.63845 29.845 9.535 29.9407 10.8677C31.7356 8.17805 33.7818 6.61514 36.9767 7.23304C36.9767 9.09884 36.9767 10.9283 36.9767 12.9758C36.3904 13.0364 35.8041 13.1212 35.2177 13.1455C31.7835 13.2908 30.3117 14.6962 30.192 18.2098C30.0843 21.3114 30.1561 24.4251 30.1561 27.5388C30.1561 28.2173 30.1561 28.8957 30.1561 29.8165Z"
                          fill="white"/>

                </svg>